<?xml version="1.0" standalone="no"?>
<!DOCTYPE svg PUBLIC "-//W3C//DTD SVG 20010904//EN"
 "http://www.w3.org/TR/2001/REC-SVG-20010904/DTD/svg10.dtd">
<svg version="1.0" xmlns="http://www.w3.org/2000/svg"
 width="245.000000pt" height="167.000000pt" viewBox="0 0 245.000000 167.000000"
 preserveAspectRatio="xMidYMid meet">
<metadata>
Created by potrace 1.10, written by Peter Selinger 2001-2011
</metadata>
<g transform="translate(0.000000,167.000000) scale(0.100000,-0.100000)"
fill="#000000" stroke="none">
<path d="M1208 1582 c-14 -15 -33 -42 -42 -59 -15 -29 -15 -39 -3 -93 8 -33
13 -60 12 -60 -1 0 -22 7 -45 15 -41 15 -44 14 -87 -11 -43 -25 -63 -55 -63
-96 0 -68 80 -131 134 -107 26 12 26 12 6 31 -24 22 -25 41 -5 61 31 31 83
-10 71 -57 -3 -12 -28 -39 -56 -60 -27 -21 -50 -39 -50 -41 0 -2 14 -33 30
-71 17 -37 29 -68 27 -70 -2 -2 -20 16 -40 40 -87 105 -314 242 -478 289 -106
31 -314 113 -354 140 -16 11 -56 42 -87 69 -31 26 -59 48 -62 48 -23 0 32
-178 80 -260 91 -156 253 -276 442 -325 l82 -21 -26 -25 c-14 -13 -37 -46 -51
-74 -22 -42 -25 -58 -20 -112 7 -72 31 -125 79 -170 123 -117 322 -85 372 59
19 57 18 73 -11 141 l-16 37 -20 -32 c-36 -61 -58 -78 -99 -78 -103 0 -120
123 -24 170 70 33 97 35 152 7 88 -45 130 -159 98 -267 -13 -46 -28 -67 -87
-123 l-70 -67 119 -179 119 -179 119 179 119 179 -70 68 c-59 55 -74 76 -87
122 -32 108 10 222 98 267 55 28 82 26 152 -7 96 -47 79 -170 -24 -170 -41 0
-63 17 -99 78 l-20 32 -16 -37 c-29 -68 -30 -84 -11 -141 38 -111 171 -162
291 -111 95 40 150 117 160 222 5 54 2 70 -20 112 -14 28 -37 61 -51 74 l-26
25 82 21 c189 49 351 169 442 325 48 82 103 260 80 260 -3 0 -31 -22 -62 -48
-31 -27 -70 -58 -87 -69 -40 -27 -248 -109 -354 -140 -164 -47 -391 -184 -478
-289 -20 -24 -38 -42 -40 -40 -2 2 10 33 27 70 16 38 30 69 30 71 0 2 -23 20
-50 41 -28 21 -53 48 -56 60 -12 47 40 88 71 57 20 -20 19 -39 -5 -61 -20 -19
-20 -19 6 -31 54 -24 134 39 134 107 0 41 -20 71 -63 96 -43 25 -46 26 -87 11
-23 -8 -44 -15 -45 -15 -1 0 4 27 12 60 12 55 12 63 -6 98 -10 20 -30 47 -43
59 l-24 23 -26 -28z m62 -56 c18 -30 20 -43 14 -102 l-7 -67 57 6 c53 5 59 4
91 -25 43 -37 47 -77 10 -113 -32 -33 -45 -31 -45 4 0 37 -43 74 -74 65 -32
-9 -56 -42 -56 -77 0 -23 11 -41 46 -75 46 -43 46 -45 35 -81 -20 -66 -31
-115 -26 -119 7 -7 48 23 116 83 118 105 295 207 419 240 119 32 324 117 390
161 71 48 82 44 59 -23 -33 -100 -118 -211 -223 -289 -79 -59 -122 -82 -230
-119 -105 -35 -120 -52 -88 -92 51 -65 65 -103 59 -170 -11 -142 -148 -245
-275 -208 -85 26 -146 110 -128 180 l7 26 35 -30 c27 -25 44 -31 79 -31 80 0
115 32 115 103 0 100 -134 165 -241 119 -81 -35 -124 -115 -124 -227 1 -86 30
-150 100 -213 28 -26 45 -48 41 -57 -7 -20 -185 -285 -191 -285 -6 0 -184 265
-191 285 -4 9 12 31 39 55 24 22 57 64 73 93 51 91 36 231 -34 310 -21 24 -98
57 -132 57 -59 0 -132 -39 -157 -83 -7 -12 -12 -41 -13 -64 0 -34 5 -46 31
-67 45 -38 112 -36 161 4 36 29 37 30 43 9 19 -58 -23 -137 -89 -167 -87 -42
-192 -19 -257 56 -80 91 -81 195 -1 300 36 47 24 61 -84 98 -145 49 -236 106
-330 206 -69 73 -141 211 -132 253 2 11 19 4 68 -29 66 -44 271 -129 390 -161
132 -36 327 -152 453 -269 38 -36 76 -61 82 -54 3 3 -15 85 -30 133 -5 15 5
32 39 67 50 50 59 86 31 125 -34 49 -115 23 -115 -38 0 -37 -21 -38 -49 -3
-29 37 -27 78 6 109 32 29 30 28 102 25 l54 -2 -6 68 c-6 57 -4 72 14 101 26
42 42 42 69 -1z"/>
<path d="M1185 1125 c-19 -20 -35 -45 -35 -56 0 -25 31 -85 62 -121 l24 -26
22 25 c30 34 62 97 62 122 0 23 -63 91 -85 91 -8 0 -30 -16 -50 -35z m83 -119
l-33 -66 -33 66 -34 66 33 34 33 34 34 -33 33 -34 -33 -67z"/>
<path d="M1218 539 c-35 -19 -108 -120 -108 -148 0 -29 82 -156 112 -175 13
-8 23 -5 42 13 37 35 96 136 96 164 0 15 -18 48 -45 81 -53 65 -73 78 -97 65z
m69 -76 c23 -29 43 -50 45 -48 2 2 5 -5 5 -16 1 -12 -22 -56 -50 -99 l-53 -78
-49 76 c-28 42 -50 86 -51 99 -1 13 1 21 4 18 3 -2 25 22 50 55 26 33 49 57
53 52 3 -4 24 -30 46 -59z"/>
</g>
</svg>
